<?xml version="1.0" encoding="iso-8859-1"?>
<!-- Uploaded to: SVG Repo, www.svgrepo.com, Generator: SVG Repo Mixer Tools -->
<!DOCTYPE svg PUBLIC "-//W3C//DTD SVG 1.1//EN" "http://www.w3.org/Graphics/SVG/1.1/DTD/svg11.dtd">
<svg fill="#000000" height="800px" width="800px" version="1.1" id="Capa_1" xmlns="http://www.w3.org/2000/svg" xmlns:xlink="http://www.w3.org/1999/xlink" 
	 viewBox="0 0 200 200" xml:space="preserve">
<path d="M19.474,200h51h15h95.053c10.738,0,19.474-8.736,19.474-19.474v-51v-15V19.474C200,8.736,191.264,0,180.526,0h-49.368h-15
	H19.474C8.736,0,0,8.736,0,19.474v51v15v95.053C0,191.264,8.736,200,19.474,200z M129.526,15h51c2.47,0,4.474,2.003,4.474,4.474
	v96.387h-55.474V15z M185,129.526v51c0,2.47-2.003,4.474-4.474,4.474H83.842v-55.474H185z M85.474,114.526V85.474h29.053v29.053
	H85.474z M15,19.474C15,17.003,17.003,15,19.474,15h96.685v55.474H15V19.474z M15,83.842h55.474V185h-51
	c-2.47,0-4.474-2.003-4.474-4.474V83.842z"/>
</svg>